<svg id="Group_332" data-name="Group 332" xmlns="http://www.w3.org/2000/svg" xmlns:xlink="http://www.w3.org/1999/xlink" width="44.831" height="40.17" viewBox="0 0 44.831 40.17">
  <defs>
    <clipPath id="clip-path">
      <rect id="Rectangle_191" data-name="Rectangle 191" width="44.831" height="40.17" fill="none"/>
    </clipPath>
  </defs>
  <g id="Group_328" data-name="Group 328" transform="translate(0 0)">
    <g id="Group_327" data-name="Group 327" clip-path="url(#clip-path)">
      <path id="Path_405" data-name="Path 405" d="M331.173,703.97H305.891a1.4,1.4,0,0,1-1.38-1.407V692.486a.639.639,0,1,1,1.278,0v10.077a.1.1,0,0,0,.1.1h25.282a.1.1,0,0,0,.1-.1V684.828H305.789v3.761a.639.639,0,1,1-1.278,0v-4.413a.645.645,0,0,1,.639-.651h26.761a.645.645,0,0,1,.639.651v18.386a1.4,1.4,0,0,1-1.377,1.407Zm0,0" transform="translate(-289.171 -678.145)" fill="#342280"/>
      <path id="Path_406" data-name="Path 406" d="M274.714,676.932a4.419,4.419,0,0,1-4.083-2.781,4.568,4.568,0,0,1,.958-4.909,4.359,4.359,0,0,1,4.817-.976,4.519,4.519,0,0,1-1.692,8.667Zm0-7.705a3.143,3.143,0,0,0-2.9,1.977,3.248,3.248,0,0,0,.682,3.49,3.1,3.1,0,0,0,3.424.694,3.212,3.212,0,0,0-1.2-6.161Zm0,0" transform="translate(-266.487 -667.902)" fill="#342280"/>
    </g>
  </g>
  <path id="Path_407" data-name="Path 407" d="M271.657,752.047a2.931,2.931,0,0,1-2.938-2.918V734.949a.668.668,0,0,1,1.335,0v14.18a1.6,1.6,0,0,0,1.7,1.581,1.533,1.533,0,0,0,1.135-.644,1.68,1.68,0,0,0,.279-.843c.036-.387.054-.781.054-1.171V737.34a.668.668,0,1,1,1.335,0v10.713c0,.431-.02.868-.06,1.294a2.987,2.987,0,0,1-.528,1.505,2.866,2.866,0,0,1-2.136,1.192c-.057,0-.117,0-.176,0Zm0,0" transform="translate(-265.296 -711.899)" fill="#342280"/>
  <path id="Path_408" data-name="Path 408" d="M269.916,727.484c-.06,0-.119,0-.179-.005a2.866,2.866,0,0,1-2.136-1.191,2.982,2.982,0,0,1-.529-1.505c-.039-.43-.059-.864-.059-1.294V712.777a.668.668,0,1,1,1.335,0V723.49c0,.389.018.782.053,1.171a1.689,1.689,0,0,0,.279.843,1.536,1.536,0,0,0,1.137.645,1.6,1.6,0,0,0,1.694-1.58V702.281a1.918,1.918,0,0,1,1.914-1.915h6.419a1.336,1.336,0,0,0,.943-.39,1.313,1.313,0,0,0,.382-.934,1.33,1.33,0,0,0-1.325-1.335H263.981a3.514,3.514,0,0,0-3.511,3.513v9.413a1.025,1.025,0,0,0,1.031,1.017.981.981,0,0,0,1.01-.969v-8.351a.668.668,0,0,1,1.335,0v8.351a2.307,2.307,0,0,1-2.305,2.3,2.371,2.371,0,0,1-2.407-2.353v-9.413a4.851,4.851,0,0,1,4.846-4.846h15.865a2.664,2.664,0,1,1,0,5.328h-6.419a.58.58,0,0,0-.579.579v22.287a2.932,2.932,0,0,1-2.933,2.916Zm0,0" transform="translate(-259.086 -687.336)" fill="#342280"/>
  <path id="Path_409" data-name="Path 409" d="M331.9,684.86H301.011a.668.668,0,0,1,0-1.335H331.9a.668.668,0,0,1,0,1.335Zm0,0" transform="translate(-287.786 -678.011)" fill="#342280"/>
  <path id="Path_410" data-name="Path 410" d="M331.9,740.585H301.011a.668.668,0,0,1,0-1.335H331.9a.668.668,0,0,1,0,1.335Zm0,0" transform="translate(-287.786 -714.749)" fill="#342280"/>
  <rect id="Rectangle_192" data-name="Rectangle 192" width="44.831" height="40.17" transform="translate(0 0)" fill="none"/>
  <path id="Path_411" data-name="Path 411" d="M335.323,754.489h-4.078a.669.669,0,0,1-.506-.231l-6.794-7.872-6.8,7.872a.669.669,0,0,1-.506.231h-4.072a.668.668,0,0,1-.5-1.107l8.535-9.747v-3.717a.668.668,0,0,1,.668-.667h5.357a.668.668,0,0,1,.667.667v3.672l8.533,9.793a.668.668,0,0,1-.5,1.106Zm-3.77-1.335h2.3l-7.735-8.873a.668.668,0,0,1-.164-.439v-3.257h-4.021v3.3a.672.672,0,0,1-.166.44l-7.73,8.832h2.3l7.1-8.226a.69.69,0,0,1,1.01,0Zm0,0" transform="translate(-295.275 -715.118)" fill="#342280"/>
</svg>
