<svg id="Group_331" data-name="Group 331" xmlns="http://www.w3.org/2000/svg" width="32.024" height="42.005" viewBox="0 0 32.024 42.005">
  <path id="Path_403" data-name="Path 403" d="M453.414,661.422a6.918,6.918,0,1,0-6.471-7.339,6.918,6.918,0,0,0,6.471,7.339Zm.774-12.315a5.42,5.42,0,1,1-5.75,5.07,5.42,5.42,0,0,1,5.75-5.07Zm0,0" transform="translate(-437.835 -647.599)" fill="#342280"/>
  <path id="Path_404" data-name="Path 404" d="M419.67,713.719l15.283,2.529a.831.831,0,0,0,.139.012.844.844,0,0,0,.14-.012l15.275-2.529a.661.661,0,0,0,.593-.628V696.358a.587.587,0,0,0-.259-.492.822.822,0,0,0-.613-.135l-2.875.477v-3.623c0-2.964-2.826-5.407-6.3-5.407a.811.811,0,0,0-.6.276,6.272,6.272,0,0,1-1.422,1.221,7.519,7.519,0,0,1-4.95,1.041,6.888,6.888,0,0,1-4.354-2.263.807.807,0,0,0-.6-.274c-3.474,0-6.3,2.444-6.3,5.407v3.623l-2.881-.477a.814.814,0,0,0-.606.134.594.594,0,0,0-.259.493v16.733a.661.661,0,0,0,.593.628Zm15.419,1.251-1.03-.175V699.364l.9.151a.764.764,0,0,0,.266,0l.894-.151v15.431Zm14.513-8.058H448.3a1.217,1.217,0,0,1-.793-.268.884.884,0,0,1-.335-.67v-1.89a.877.877,0,0,1,.336-.666,1.207,1.207,0,0,1,.792-.262H449.6Zm0-5.033H448.3a2.844,2.844,0,0,0-1.851.636,2.069,2.069,0,0,0-.775,1.569v1.89a2.076,2.076,0,0,0,.774,1.573,2.855,2.855,0,0,0,1.852.643H449.6v4.374l-11.985,1.983V699.116l11.985-1.983Zm-25.282-9.294c0-2.144,1.939-3.924,4.444-4.087a9.08,9.08,0,0,0,12.648,0c2.5.163,4.441,1.944,4.445,4.087v3.871l-10.768,1.781-10.768-1.781Zm8.24,6.532v15.431l-11.985-1.983V708.19h1.342a2.818,2.818,0,0,0,1.838-.646,2.046,2.046,0,0,0,.753-1.57v-1.89a2.04,2.04,0,0,0-.754-1.566,2.808,2.808,0,0,0-1.837-.639h-1.342v-4.745Zm-11.985,7.8v-3.755h1.342a1.172,1.172,0,0,1,.778.265.849.849,0,0,1,.315.663v1.89a.856.856,0,0,1-.314.667,1.178,1.178,0,0,1-.779.271Zm0,0" transform="translate(-419.076 -674.254)" fill="#342280"/>
</svg>
